<svg xmlns="http://www.w3.org/2000/svg" viewBox="0 0 64 64" id="businessman">
    <path fill="#f83600"
          d="M49.24 62.94H1.43C.64 62.94 0 62.3 0 61.51V44.96c0-9.23 10.57-11.48 13.82-11.95.68-.11 1.09-.14 1.09-.14 1.47-.07 2.46-.43 2.98-1.09.67-.84.55-2.14.42-2.84-.02-.09-.02-.17-.02-.26 0-.79.64-1.44 1.43-1.44.73 0 1.33.54 1.42 1.24.26 1.44.28 3.47-1 5.08-1.06 1.33-2.76 2.06-5.05 2.16.01 0-.31.03-.83.11-2.68.39-11.38 2.18-11.38 9.11v15.11H47.8V44.96c0-6.93-8.69-8.73-11.36-9.11-.55-.09-.87-.11-.9-.11-2.26-.1-3.97-.84-5.02-2.18-1.37-1.75-1.19-3.98-.96-5.15a1.432 1.432 0 0 1 2.81.55c-.14.69-.27 1.98.4 2.83.52.66 1.51 1.03 2.94 1.09.04 0 .46.03 1.15.14 3.22.46 13.8 2.71 13.8 11.94V61.5c.01.8-.63 1.44-1.42 1.44z"></path>
    <path fill="#f83600"
          d="M25.34 62.94c-.58 0-1.1-.35-1.32-.88L12.7 34.99c-.31-.73.04-1.57.77-1.87.73-.31 1.57.04 1.87.77l9.99 23.91 9.99-23.91c.31-.73 1.15-1.08 1.87-.77.73.31 1.07 1.14.77 1.87l-11.3 27.07c-.22.54-.74.88-1.32.88z"></path>
    <path fill="#f83600"
          d="M28.91 54.39c-.7 0-1.32-.52-1.42-1.23l-2.13-15.12a1.434 1.434 0 0 1 2.84-.4l2.13 15.12c.11.78-.43 1.51-1.22 1.62-.07 0-.13.01-.2.01z"></path>
    <path fill="#f83600"
          d="M21.76 54.39c-.07 0-.13 0-.2-.01a1.44 1.44 0 0 1-1.22-1.62l2.13-15.12c.11-.78.84-1.32 1.62-1.22.78.11 1.33.84 1.22 1.62l-2.13 15.12c-.1.71-.71 1.23-1.42 1.23z"></path>
    <path fill="#f83600"
          d="M28.59 39.27h-6.5a1.43 1.43 0 1 1 0-2.86h6.5a1.43 1.43 0 1 1 0 2.86zm11.95 23.67c-.79 0-1.43-.64-1.43-1.43v-5.69a1.43 1.43 0 1 1 2.86 0v5.69c.01.79-.64 1.43-1.43 1.43zm-30.41 0c-.79 0-1.43-.64-1.43-1.43v-5.69a1.43 1.43 0 1 1 2.86 0v5.69c0 .79-.64 1.43-1.43 1.43zm15.21-30.8c-7.83 0-13.29-8.92-13.29-16.93 0-8.2 5.59-14.16 13.29-14.16 7.7 0 13.29 5.95 13.29 14.16 0 8.01-5.46 16.93-13.29 16.93zm0-28.22c-6.04 0-10.43 4.75-10.43 11.29 0 7.36 4.97 14.06 10.43 14.06s10.43-6.7 10.43-14.06c-.01-6.54-4.39-11.29-10.43-11.29zm25.18 38.23c-.94 0-1.89-.1-2.83-.3-.77-.16-1.27-.92-1.11-1.7.16-.78.93-1.26 1.7-1.11.74.16 1.49.24 2.23.24 5.85 0 10.61-4.76 10.61-10.61s-4.76-10.6-10.61-10.6-10.61 4.76-10.61 10.6c0 2.09.61 4.11 1.75 5.85.43.66.25 1.55-.41 1.99-.66.43-1.55.25-1.99-.41a13.512 13.512 0 0 1-2.22-7.43c0-7.43 6.05-13.47 13.48-13.47C57.95 15.2 64 21.24 64 28.67c0 7.43-6.05 13.48-13.48 13.48z"></path>
    <path fill="#f83600"
          d="M54.74 31.07c0 .56-.1 1.06-.3 1.51-.2.45-.48.83-.84 1.16-.36.32-.8.58-1.31.78-.51.19-1.08.32-1.7.37l-.2 2.08c-.01.05-.02.1-.04.14-.02.04-.06.07-.13.1-.06.03-.15.05-.25.06-.11.02-.24.02-.4.02-.21 0-.37-.01-.5-.03-.13-.02-.22-.05-.3-.08-.07-.04-.12-.08-.14-.14a.305.305 0 0 1-.01-.19l.2-1.97c-.28-.04-.54-.09-.79-.15s-.47-.13-.67-.2c-.2-.07-.37-.15-.52-.23a1.17 1.17 0 0 1-.33-.23.638.638 0 0 1-.16-.33c-.03-.15-.05-.36-.05-.65 0-.22.01-.4.02-.54s.04-.25.07-.33c.03-.08.07-.13.12-.16.05-.03.11-.04.17-.04.08 0 .21.05.37.15.16.1.37.2.62.32s.56.22.92.32.78.15 1.27.15c.76 0 1.32-.14 1.69-.42.37-.28.55-.66.55-1.12 0-.31-.08-.57-.24-.77-.16-.2-.37-.38-.64-.53a5.79 5.79 0 0 0-.9-.41c-.33-.12-.68-.25-1.02-.38a7.89 7.89 0 0 1-1.02-.48c-.33-.18-.63-.4-.9-.67s-.48-.59-.64-.97c-.16-.38-.24-.84-.24-1.37 0-.49.08-.93.24-1.33.16-.4.4-.75.7-1.04.3-.3.68-.54 1.12-.72.44-.18.95-.31 1.51-.37l.19-1.95c.01-.05.02-.1.04-.13.02-.04.06-.07.13-.1.06-.03.14-.05.25-.06a4.127 4.127 0 0 1 .91.01c.13.02.23.05.31.08.07.04.12.08.14.14.02.06.03.12.03.19l-.19 1.84c.18.03.37.06.57.11.2.05.39.1.56.16.17.06.33.13.48.19.14.07.24.13.3.18.06.06.1.11.13.17.03.06.05.12.07.2.02.08.03.18.03.29.01.11.01.24.01.39 0 .2 0 .37-.01.5s-.03.23-.05.3c-.03.07-.06.11-.09.14-.03.02-.07.03-.12.03-.08 0-.21-.04-.37-.13-.16-.08-.36-.17-.6-.27s-.51-.19-.82-.27c-.31-.08-.65-.13-1.01-.13-.34 0-.62.03-.86.1-.24.06-.43.16-.58.27-.15.12-.26.26-.33.42s-.11.34-.11.53c0 .3.08.56.24.77.16.21.38.39.65.53.27.15.57.28.91.41.34.12.69.25 1.04.39.35.14.7.29 1.04.47.34.18.64.4.91.66s.48.58.64.95c.15.33.23.78.23 1.31z"></path>
</svg>
