<svg xmlns="http://www.w3.org/2000/svg" viewBox="0 0 512 512" fill="#f83600">
    <path d="M252 252.1c-2-2.1-5.4-2.2-7.5-.2-13.4 12.8-34.5 12.8-47.9 0-2.1-2-5.5-2-7.5.2-2 2.1-1.9 5.5.2 7.5 17.6 16.7 45.1 16.7 62.6 0 2.1-2 2.1-5.4.1-7.5zm-3.5-56.8c2.7 1.1 5.8-.2 7-2.9 1.3-3.2 5.9-3.2 7.2 0 1.1 2.7 4.2 4 7 2.9 2.7-1.1 4-4.3 2.9-7-5-12-22-11.9-26.9 0-1.2 2.7 0 5.8 2.8 7zm-55.7 0c2.7-1.1 4-4.3 2.9-7-5-12-22-11.9-26.9 0-1.1 2.7.2 5.8 2.9 7 2.7 1.1 5.8-.2 7-2.9 1.3-3.2 5.9-3.2 7.2 0 1 2.7 4.1 4 6.9 2.9z"/>
    <path d="M497.4 377.8h-38.6v-7.4c0-10.8-8.8-19.5-19.5-19.5h-26.8c-5.3 0-10 2.1-13.5 5.5-44.9-43.1-98.4-37.6-100.9-38.1-5.3-4.4-11-8.6-12.9-9.9-2.7-1.9-6.3-2.5-9.8-.9v-13.3c21.8-15.1 37.2-38.9 40.8-66.7l1.1-8.7c10.8-2.2 18.9-11.8 18.9-23.2 0-6.4-2.7-12.1-6.8-16.4 11.1-74.5 14.1-120.9-35.7-130.2-37.5-66.5-191.7-34.8-188.5 66.8.4 12.8 4.3 40.6 7.6 62.5-4.7 4.3-7.6 10.4-7.6 17.3 0 11.4 8.1 21 18.9 23.2l1.1 8.7c3.6 27.9 19 51.7 40.8 66.7v13.3c-4.8-2.2-9-.4-12.9 3.1-3.1 2.2-6.4 4.8-9.9 7.7H137c-75.6 0-137 61.4-137 136.9v37.4c0 2.9 2.4 5.3 5.3 5.3h492.1c8 0 14.6-6.5 14.6-14.6v-91c0-7.9-6.5-14.5-14.6-14.5zm-65.5 48.4h-12c-5.2 0-9.4 4.2-9.4 9.4v3.7h-21.2c-2.5 0-4.8-1.8-5.6-4.5-3.8-12.6-15-23.1-28.5-26.6-2.8-.7-4.7-3-4.7-5.7 0-4.8-.1-9.1.1-10.4.2-1.9 1.8-3.5 3.9-3.5h143.2c2.2 0 3.9 1.8 3.9 3.9v10.1c0 2.7-1.9 4.9-4.7 5.7-13.5 3.5-24.7 14-28.5 26.6-.8 2.7-3.1 4.5-5.6 4.5h-21.2v-3.7c-.4-5.3-4.6-9.5-9.7-9.5zm-1.3 10.7v14.2c0 2.6-2.1 4.7-4.7 4.7s-4.7-2.1-4.7-4.7v-14.2h9.4zm-18.2-75.3h26.8c4.9 0 8.9 4 8.9 8.9v7.4h-31c-3.3-4.8-6.9-9.4-10.8-13.7 1.6-1.7 3.7-2.6 6.1-2.6zm-18.9 4.4c-.9 3.8-.4 5.3-.6 11.8h-38.6c-8 0-14.6 6.5-14.6 14.6v91c0 1.4.3 2.7.6 3.9h-104c32.4-24.8 70.6-52 87.7-87.3 1-2 .6-4.4-1-6-5.7-5.9-12.4-16.1-14.8-23.6 9.4-5.8 17.1-10.6 19.9-22 .5-2-.2-4.1-1.8-5.4-4.6-3.8-10.2-8.8-15.8-13.8 32.3 1.5 61.5 15.3 83 36.8zm-172.9-1 13.7 7c-.5 5.6-2.7 11.1-6.4 15.4h-14.6c-3.7-4.3-5.9-9.7-6.4-15.4l13.7-7zm49.7-44.1c2.7 12 2.8 25 .3 39.9l-9.3 13.1-31.8-16.3 30.9-30.9c2.8-2.8 6.2-4.7 9.9-5.8zm-25 112.6-9.3-39.4c4.2-4.9 7-10.7 8.3-17l16.2 8.3c1.9 1 3.2.5 4 .2-4.3 14.1-10.5 29.7-19.2 47.9zm-65.4-59.7-9.3-13.1c-2.5-14.8-2.3-27.8.3-39.8 3.7 1.1 7.1 3 9.9 5.8l30.9 30.9-31.8 16.2zm.8 11.6 16.3-8.3c1.3 6.2 4.1 12 8.2 16.9l-9.3 39.4c-8.7-18.2-14.9-33.7-19.3-47.8 1.1.4 2.2.8 4.1-.2zm34.5 12.6H226l11.9 50.5c-5.6 11.2-11.6 22.5-17.3 32.9-5.7-10.5-11.7-21.8-17.3-33l11.9-50.4zm65.6-79.6c18.1 13.6 22.6 19.2 36 30.5-3 6.6-10 9.6-17.5 14.6-1.7 1.1-2.6 3.2-2.3 5.3 1.4 9.3 8.8 21.6 15.9 29.8-15.6 29.5-47.3 53-75.7 74.7 23.8-45.1 54.6-105.9 43.6-154.9zm4.6-262.3c.8 1.5 2.2 2.6 3.9 2.9 41.8 6.5 41 41.5 29.3 119.6-.2 1.5-1.6 2.7-3.1 2.7-1.6 0-3-1.3-3.1-2.9l-2.2-28.5c-1.2-15-14.6-14-21.1-38.2-3.3-12.2-15.1-18.6-27.1-14.4-20.6 7.3-49.4 8.6-87.9 3.9-10.2-1.2-19.7 5.5-22.2 15.7-5.4 22.9-14.8 23.2-15.9 35.3l-5.5 26.6c-.3 1.4-1.6 2.5-3.1 2.5-.5-.2-3.4.4-3.9-2.6-2.7-17.9-7.4-50-7.8-63.3-2.8-93.1 140.6-117.2 169.7-59.3zm-149.6 170-1.7-12.9c-.3-2.7-2.6-4.7-5.3-4.7-7.2 0-13-5.8-13-13 0-2.5.7-4.8 2-6.8 4.5 3.8 9.2 3.2 9.7 3.2 6.5 0 12.2-4.6 13.5-11 5.7-27.4 5.7-27 5.7-27.6.6-7.6 9.8-9.3 15.7-34 1.2-4.9 5.7-8.2 10.5-7.6 40.1 4.8 70.5 3.4 92.7-4.5 6.2-2.2 11.6 1 13.3 7.1 6.7 24.6 20.1 27.7 20.8 36.2l2.2 28.5c.6 7.1 6.6 12.7 13.8 12.7 3.1 0 5.9-1.1 8.2-2.8 1.1 1.9 1.7 4 1.7 6.4 0 7.2-5.8 13-13 13-2.7 0-4.9 2-5.3 4.7l-1.7 12.9c-5.5 42.6-42 74.7-84.9 74.7s-79.5-31.9-84.9-74.5zm84.8 85.3c15.8 0 30.7-3.9 44-10.8v11c-4.3 1.7-8.3 4.1-11.7 7.5l-32.3 32.3-32.3-32.3c-3.4-3.4-7.4-5.8-11.7-7.5v-11c13.3 6.9 28.2 10.8 44 10.8zm-60.2 7c-11.1 49 19.7 109.7 43.7 154.9-26.3-20.8-59.3-43.7-75.8-74.8 7.1-8.3 14.5-20.5 15.9-29.8.3-2.1-.6-4.1-2.3-5.3-7.4-4.9-14.5-7.9-17.5-14.6 12.2-10.2 21-19.4 36-30.4zM10.7 455.2c0-67.5 53.3-122.8 120-126.1-6.3 5.6-11.5 10.3-15.8 13.8-1.6 1.3-2.3 3.4-1.8 5.4 2.7 11.2 10.5 16.2 19.9 22-2.4 7.5-9.1 17.7-14.8 23.6-1.6 1.6-1.9 4-1 6 16.9 34.8 52.7 60.5 87.8 87.3H10.7v-32zm486.7 32.1H354.2c-2.2 0-3.9-1.8-3.9-3.9v-65.6c.7.3 1.3.5 2 .7 10 2.6 18.3 10.2 21 19.4 2.2 7.2 8.5 12.1 15.8 12.1h21.2v1.2c0 8.5 6.9 15.4 15.4 15.4s15.4-6.9 15.4-15.4V450h21.2c7.3 0 13.6-4.9 15.8-12.1 2.8-9.1 11-16.7 21-19.4.7-.2 1.4-.4 2-.7v65.6c.2 2.2-1.5 3.9-3.7 3.9z"/>
</svg>