<svg xmlns="http://www.w3.org/2000/svg" viewBox="0 0 512 512" id="judge" fill="#f83600">
    <path d="M216.337 199.718a39.608 39.608 0 0 0 16.858 3.792h.118a39.617 39.617 0 0 0 16.735-3.793 3.5 3.5 0 1 0-2.998-6.325 32.57 32.57 0 0 1-13.759 3.118h-.096a32.557 32.557 0 0 1-13.86-3.118 3.5 3.5 0 0 0-2.998 6.326Zm264.659 102.538a16.407 16.407 0 0 0-19.986 2.833l-78.08-45.08A16.38 16.38 0 0 0 353 247.285l-10.648 18.444-11.24-4.089-.01-.003-27.294-9.927a18.564 18.564 0 0 1-12.186-17.4v-21.487a76.42 76.42 0 0 0 24.31-55.792v-8.817a28.795 28.795 0 0 0 25.26-28.536 22.596 22.596 0 0 0-22.571-22.57h-2.689v-27.49a3.472 3.472 0 0 0-.325-1.455C312.08 28.268 278.52 0 233.193 0s-78.887 28.268-82.414 68.163a3.472 3.472 0 0 0-.325 1.455v27.49h-2.692a22.595 22.595 0 0 0-22.57 22.57 28.794 28.794 0 0 0 25.262 28.536v8.817a76.416 76.416 0 0 0 24.31 55.792v21.487a18.565 18.565 0 0 1-12.187 17.4l-27.29 9.926-.014.005-57.496 20.91a83.769 83.769 0 0 0-54.964 78.479V508.5a3.5 3.5 0 0 0 7 0V361.03a76.748 76.748 0 0 1 50.356-71.901l54.908-19.969 15.573 24.503-24.246 50.711a11.323 11.323 0 0 0 8.278 16.034l60.607 10.56a11.51 11.51 0 0 0 1.99.174 11.288 11.288 0 0 0 2.464-.272l26.279 41.331a8.5 8.5 0 0 0 14.345-.003l26.27-41.324a11.281 11.281 0 0 0 2.439.268 11.515 11.515 0 0 0 1.987-.174l60.642-10.57a11.318 11.318 0 0 0 8.29-15.998l-5.324-11.223c.403-.076.806-.164 1.206-.272a16.27 16.27 0 0 0 7.55-4.468l23.39 13.504-82.534 142.955a18.068 18.068 0 0 0 31.294 18.068l82.535-142.955 23.393 13.506a16.407 16.407 0 0 0 7.538 18.724 16.276 16.276 0 0 0 7.53 2.172V508.5a3.5 3.5 0 0 0 7 0V393.15a16.301 16.301 0 0 0 7.861-6.91l35.56-61.594a16.41 16.41 0 0 0-5.998-22.39ZM315.932 104.108h2.689a15.588 15.588 0 0 1 15.572 15.57 21.79 21.79 0 0 1-18.26 21.471ZM150.454 141.15a21.789 21.789 0 0 1-18.261-21.472 15.587 15.587 0 0 1 15.57-15.57h2.69Zm180.855 128.01 7.489 2.724-18.229 31.574-4.728-9.967Zm-18.021-6.554 11.283 4.104-12.275 19.308-7.15-15.074a107.693 107.693 0 0 0 8.142-8.338ZM157.454 75.17c0-19.954 7.608-37.105 22.003-49.6C193.25 13.594 212.334 7 233.192 7s39.942 6.595 53.736 18.57c14.395 12.495 22.003 29.646 22.003 49.6v59.346a13.351 13.351 0 0 1-9.789-11.448l-3.662-33.35a70.961 70.961 0 0 0-16.33-38.113 60.102 60.102 0 0 0-91.916 0 70.961 70.961 0 0 0-16.33 38.113l-3.662 33.35a13.351 13.351 0 0 1-9.79 11.448Zm103.865 26.07a24.5 24.5 0 0 0-24.213 20.964h-7.827a24.45 24.45 0 0 0-43.296-11.785l-9.598-6.47 1.479-13.467a63.972 63.972 0 0 1 14.724-34.366 53.1 53.1 0 0 1 81.21 0 63.972 63.972 0 0 1 14.724 34.365l1.749 15.928-8.094 6.524a24.473 24.473 0 0 0-20.858-11.693Zm17.467 24.464a17.467 17.467 0 1 1-17.467-17.464 17.485 17.485 0 0 1 17.467 17.464Zm-56.252 0a17.467 17.467 0 1 1-17.467-17.464 17.485 17.485 0 0 1 17.467 17.464Zm-65.08 31.327v-15.365a20.333 20.333 0 0 0 16.748-17.834l1.32-12.023 6.898 4.65a24.463 24.463 0 1 0 46.86 12.745h7.826a24.466 24.466 0 1 0 47.908-9.606c.098-.064.198-.122.291-.196l5.873-4.734 1.006 9.164a20.333 20.333 0 0 0 16.748 17.834v15.365a69.374 69.374 0 0 1-28.812 56.195l-9.944 7.148a63.359 63.359 0 0 1-73.967 0l-9.944-7.148a69.373 69.373 0 0 1-28.811-56.195Zm131.193 90.972a78.358 78.358 0 0 1-110.908 0 25.459 25.459 0 0 0 4.024-13.693v-15.709c.14.102.276.208.416.309l9.944 7.148a70.358 70.358 0 0 0 82.14 0l9.943-7.148c.14-.101.277-.207.416-.309v15.71a25.461 25.461 0 0 0 4.025 13.692ZM164.968 258.29a25.338 25.338 0 0 0 8.22-4.919 85.412 85.412 0 0 0 120.01 0 25.335 25.335 0 0 0 8.218 4.918l4.777 1.737a99.322 99.322 0 0 1-146 0Zm-23.154 8.42 11.284-4.104a107.716 107.716 0 0 0 8.33 8.514l-7.217 15.095Zm57.527 96.888c-.018.011-.038.017-.056.028l-.008.007a4.301 4.301 0 0 1-2.783.439l-60.61-10.56a4.323 4.323 0 0 1-3.164-6.122l34.219-71.57a106.097 106.097 0 0 0 60.62 23.029l-26.344 62.647a4.294 4.294 0 0 1-1.874 2.102Zm35.12 44.84a1.5 1.5 0 0 1-2.535.004l-26.172-41.163a11.406 11.406 0 0 0 1.915-3.072l25.51-60.664 25.506 60.662a11.408 11.408 0 0 0 1.931 3.09Zm99.14-57.206a4.294 4.294 0 0 1-3.099 2.27l-60.644 10.57a4.32 4.32 0 0 1-2.813-.459h-.001a4.3 4.3 0 0 1-1.905-2.12L238.8 298.85a106.094 106.094 0 0 0 60.84-23.182l16.778 35.369a16.362 16.362 0 0 0 10.281 21.664l6.97 14.696a4.286 4.286 0 0 1-.067 3.835Zm6.166-29.463a9.39 9.39 0 1 1-16.265-9.391l35.56-61.593a9.39 9.39 0 1 1 16.266 9.39Zm-30.253 177.694a11.067 11.067 0 1 1-19.169-11.067l82.535-142.955 19.17 11.068Zm115.058-132.26-25.99-15.006-.001-.001-18.473-10.665-32.75-18.908 32.505-56.301 77.214 44.58Zm56.36-46.057-35.56 61.593a9.401 9.401 0 0 1-12.829 3.438 9.403 9.403 0 0 1-3.436-12.828l35.56-61.594a9.39 9.39 0 1 1 16.265 9.391ZM95.088 431.826a3.5 3.5 0 0 0-3.5 3.5V508.5a3.5 3.5 0 0 0 7 0v-73.174a3.5 3.5 0 0 0-3.5-3.5ZM233.193 475a11.5 11.5 0 1 0 11.5 11.5 11.513 11.513 0 0 0-11.5-11.5Zm0 16a4.5 4.5 0 1 1 4.5-4.5 4.505 4.505 0 0 1-4.5 4.5Zm0-61a11.5 11.5 0 1 0 11.5 11.5 11.513 11.513 0 0 0-11.5-11.5Zm0 16a4.5 4.5 0 1 1 4.5-4.5 4.505 4.505 0 0 1-4.5 4.5Zm0-267.156a17.238 17.238 0 0 0 17.22-17.215v-5.971a3.5 3.5 0 0 0-7 0v5.97a10.22 10.22 0 0 1-20.44 0v-5.97a3.5 3.5 0 0 0-7 0v5.97a17.238 17.238 0 0 0 17.22 17.216Zm138.104 252.982a3.5 3.5 0 0 0-3.5 3.5V508.5a3.5 3.5 0 0 0 7 0v-73.174a3.5 3.5 0 0 0-3.5-3.5ZM261.32 131.702a3.5 3.5 0 0 1-3.5-3.5v-6.054a3.5 3.5 0 1 1 7 0v6.054a3.5 3.5 0 0 1-3.5 3.5Zm-56.252.528a3.5 3.5 0 0 1-3.5-3.5v-6.054a3.5 3.5 0 1 1 7 0v6.054a3.5 3.5 0 0 1-3.5 3.5Z"></path>
</svg>
