<svg xmlns="http://www.w3.org/2000/svg" viewBox="0 0 72 72">
    <defs>
        <linearGradient id="a" x1="8.01" x2="59.57" y1="72.42" y2="20.86" gradientUnits="userSpaceOnUse">
            <stop offset="0" stop-color="#fe8c00"/>
            <stop offset="1" stop-color="#f83600"/>
        </linearGradient>
    </defs>
    <path d="M66 54h-2.44l1.49-2.1a3.18 3.18 0 0 0-4.84-4.07l-.64.65a7 7 0 0 0-5.3-5.34L41.94 40.4l-.32-.07a1 1 0 0 1-.76-.87l-.38-3.64A11.49 11.49 0 0 0 45 27h1a4 4 0 0 0 3-6.62V14a9 9 0 0 0-5.06-8.07c-2.7-4.71-7.79-4.8-15.14-2.38a1 1 0 0 0-.61 1.27 1 1 0 0 0 1.28.62C35.16 3.32 42.65 2.66 43 10a1 1 0 0 0 1.06.94c1-.07 1-1.13.85-1.87A6.94 6.94 0 0 1 47 14v5.14a7.41 7.41 0 0 0-2-.14c0-1.28-.7-5.86-2.41-5.65a46.71 46.71 0 0 1-22.83-1.86 24.33 24.33 0 0 1 7-5 1 1 0 0 0 .48-1.32A1 1 0 0 0 26 4.68a26.74 26.74 0 0 0-8.71 6.57c-1 1.53 1.26 1.87 2.3 2.27-.86 1.52-.47 5.17-.55 6.87A4 4 0 0 0 22 27h1a11 11 0 0 0 4.51 8.87l-.37 3.59a1 1 0 0 1-.78.87l-12.63 2.81a7 7 0 0 0-5.39 5.68L5 68.83a1 1 0 1 0 2 .33l3.33-20a5 5 0 0 1 3.85-4.07l11.49-2.55 7.45 14.91A1 1 0 0 0 34 58a1 1 0 0 0 .9-.55l7.45-14.91 11.48 2.55a5.31 5.31 0 0 1 4 5.11L54.09 54H44a1 1 0 0 0-1 1v4a11 11 0 0 0 11 11 13.7 13.7 0 0 0 7-1.18 1 1 0 1 0 2 0l-.2-1.17c1.1-.67 5.29-5.68 3-6.56a1 1 0 0 0-1.26.65 9 9 0 0 1-3.37 4.6c-2 1.52-4.73 1.77-7.2 1.65a9 9 0 0 1-9-9V56H65v3a1 1 0 0 0 2 0v-4a1 1 0 0 0-1-1ZM25 27v-1a1 1 0 0 0-1-1h-2a2 2 0 0 1-1.33-3.49c.69-.76 2.43-.46 3.33-.51a1 1 0 0 0 1-1v-3a1 1 0 0 0-2 0v2a7.41 7.41 0 0 0-2 .14c.07-1.29-.27-3.9.48-5a48.29 48.29 0 0 0 20.7 1.34A9.79 9.79 0 0 1 43 20a1 1 0 0 0 1 1h2a2 2 0 0 1 1.34.52A2 2 0 0 1 46 25h-2a1 1 0 0 0-1 1v.66c-.38 12.26-17.46 12.41-18 .34Zm9 11a10.57 10.57 0 0 0 4.6-1c.21 1.4 0 3.86 1.39 4.74a9 9 0 0 1-12 0c1.35-.88 1.18-3.33 1.38-4.72A10.9 10.9 0 0 0 34 38Zm0 16.76-5-10a11 11 0 0 0 10 0Zm27.63-5.52a1.17 1.17 0 0 1 1.78 1.5L61.11 54h-4.2ZM23 54h-6a1 1 0 0 1 0-2h6a1 1 0 0 1 0 2Z"
          style="fill:url(#a)"/>
</svg>